# xmcd
#
# Track frame offsets: 
#        150
#        16120
#        27781
#        41998
#        54988
#        68614
#        79668
#        92820
#        104403
#        115215
#        128717
#        141267
#        154356
#        166042
#        179829
#        188533
#        198619
#        210547
#        220730
#        236444
#        251609
#        262880
#        272431
#        285097
#
# Disc length: 3954 seconds
#
# Revision: 1
# Processed by: cddbd v1.5.2PL0 Copyright (c) Steve Scherf et al.
# Submitted via: ExactAudioCopyFreeDBPlugin 1.0
#
DISCID=480f7018
DTITLE=Various Artist - Bring it on Home:  Black America Sings Sam Co
DTITLE=oke
DYEAR=2014
DGENRE=Soul
TTITLE0=The Ovations - Havin'a Party (medley) (ft Louis Williams)
TTITLE1=Johnnie Taylor - Rome (Wasn't Built in a Day)
TTITLE2=Percy Sledge - You Send Me
TTITLE3=Otis Redding - Shake
TTITLE4=Theola Kilgore - (Chain Gang) The Sound of My Man
TTITLE5=Bobby Womack - I'm Gonna Forget About You
TTITLE6=Mel Carter - When a Boy Falls in Love
TTITLE7=Eddie Floyd - Bring it on Home to Me
TTITLE8=The Soul Stirrers - That's Heaven to Me
TTITLE9=R.B. Greaves - Cupid
TTITLE10=The Miracles - Dance What You Wanna
TTITLE11=Johnnie Morisette - Meet Me at the Twistin' Place
TTITLE12=Little Anthony and The Imperials - I'm Alright
TTITLE13=Johnny Nash - Wonderful World
TTITLE14=The Persuasions - Love You Most of All
TTITLE15=The Falcons - Pow! You're in Love
TTITLE16=Brenton Wood - A Change is Gonna Come
TTITLE17=The Flamingos - Nobody Loves Me Like You
TTITLE18=Willie Hightower - Somebody Have Mercy
TTITLE19=Lou Rawls - Win Your Love
TTITLE20=The Simms Twins - The Smile
TTITLE21=Aretha Franklin - Good Times
TTITLE22=The Supremes - (Ain't That) Good News
TTITLE23=Sam and Dave - Soothe Me
EXTD=
EXTT0=
EXTT1=
EXTT2=
EXTT3=
EXTT4=
EXTT5=
EXTT6=
EXTT7=
EXTT8=
EXTT9=
EXTT10=
EXTT11=
EXTT12=
EXTT13=
EXTT14=
EXTT15=
EXTT16=
EXTT17=
EXTT18=
EXTT19=
EXTT20=
EXTT21=
EXTT22=
EXTT23=
PLAYORDER=
